<?xml version="1.0" encoding="UTF-8" standalone="no"?>
<!-- Created with Inkscape (http://www.inkscape.org/) -->

<svg
   xmlns:dc="http://purl.org/dc/elements/1.1/"
   xmlns:cc="http://creativecommons.org/ns#"
   xmlns:rdf="http://www.w3.org/1999/02/22-rdf-syntax-ns#"
   xmlns:svg="http://www.w3.org/2000/svg"
   xmlns="http://www.w3.org/2000/svg"
   xmlns:sodipodi="http://sodipodi.sourceforge.net/DTD/sodipodi-0.dtd"
   xmlns:inkscape="http://www.inkscape.org/namespaces/inkscape"
   version="1.1"
   id="svg2"
   width="980"
   height="980"
   viewBox="0 0 980 980"
   sodipodi:docname="chaikin.svg"
   inkscape:version="0.92.0 r">
  <metadata
     id="metadata8">
    <rdf:RDF>
      <cc:Work
         rdf:about="">
        <dc:format>image/svg+xml</dc:format>
        <dc:type
           rdf:resource="http://purl.org/dc/dcmitype/StillImage" />
        <dc:title></dc:title>
      </cc:Work>
    </rdf:RDF>
  </metadata>
  <defs
     id="defs6" />
  <sodipodi:namedview
     pagecolor="#ffffff"
     bordercolor="#666666"
     borderopacity="1"
     objecttolerance="10"
     gridtolerance="10"
     guidetolerance="10"
     inkscape:pageopacity="0"
     inkscape:pageshadow="2"
     inkscape:window-width="1920"
     inkscape:window-height="1018"
     id="namedview4"
     showgrid="false"
     inkscape:zoom="0.68113143"
     inkscape:cx="453.20378"
     inkscape:cy="434.95815"
     inkscape:window-x="0"
     inkscape:window-y="33"
     inkscape:window-maximized="1"
     inkscape:current-layer="svg2" />
  <path
     inkscape:connector-curvature="0"
     id="path4501"
     d="m 962,977.96192 c -4.79577,-1.32481 -5.53492,-2.11684 -7.33333,-7.85793 l -2,-6.38462 -106.45651,-53.25625 -106.45651,-53.25627 -5.79385,2.2127 c -5.48544,2.0949 -6.06441,2.08053 -10.87683,-0.2701 -4.09362,-1.99953 -5.46769,-3.68362 -7.05954,-8.65236 l -1.97658,-6.16957 -47.41042,-23.67596 -47.41043,-23.67595 -4.21345,2.17886 c -5.1679,2.67242 -7.42376,2.72418 -12.15251,0.27886 C 599.02217,797.44869 596,792.38364 596,787.93617 c 0,-2.11848 -20.02103,-12.61462 -107.19349,-56.19682 l -107.19351,-53.5918 -5.40376,1.7834 c -4.42808,1.4614 -6.14988,1.47434 -9.53605,0.0717 -4.0684,-1.6852 -8.00652,-7.22664 -8.00652,-11.26623 0,-1.37857 -15.95854,-10.04426 -48.12094,-26.13029 l -48.12093,-24.06771 -5.79609,2.21355 c -5.48815,2.09595 -6.06614,2.08164 -10.87907,-0.26924 -4.0916,-1.99855 -5.46792,-3.68425 -7.05664,-8.64291 l -1.97365,-6.16013 -106.11428,-53.04387 -106.114266,-53.04388 -6.041271,2.30719 c -5.364222,2.04861 -6.550105,2.09457 -10.5815967,0.41012 -3.5526007,-1.48435 -4.8408491,-3.02961 -5.9217471,-7.10316 -3.0166186,-11.36865 3.3278261,-20.09468 13.3871438,-18.41243 3.761228,0.629 7.012828,-2.3502 54.471983,-49.90862 41.804874,-41.89232 50.323594,-51.04508 49.607884,-53.30011 -1.49664,-4.71548 2.61365,-12.12036 7.97002,-14.3584 2.64689,-1.10593 6.03589,-1.62252 7.53111,-1.14796 2.21684,0.7036 6.6105,-3.03819 23.80656,-20.27455 18.56731,-18.61081 21.00504,-21.55521 20.39415,-24.63294 -1.50519,-7.58324 7.19345,-15.97088 14.54237,-14.02246 2.57674,0.68318 10.42359,-6.61172 54.59366,-50.75341 46.78854,-46.75849 51.518,-51.88323 50.87026,-55.12192 -1.53002,-7.65013 7.1266,-16.0732 14.52935,-14.13733 2.52021,0.65905 6.39896,-2.61128 24.14664,-20.35895 17.23589,-17.23589 20.98464,-21.64663 20.28128,-23.86271 -0.47456,-1.49522 0.042,-4.88422 1.14796,-7.53111 2.23804,-5.35637 9.64292,-9.46666 14.3584,-7.97002 2.25503,0.71571 11.40779,-7.80301 53.30011,-49.607884 47.55842,-47.459155 50.53762,-50.710755 49.90862,-54.471983 -1.69284,-10.1226433 7.19776,-16.5184703 18.48376,-13.297063 6.18059,1.7641504 8.93911,6.6429311 7.89526,13.96373 -0.6566,4.604956 -0.005,5.325843 49.26866,54.514424 45.57176,45.492996 50.23702,49.771726 53.40179,48.977416 2.00879,-0.50417 5.45597,-0.0396 8.1936,1.10426 5.46216,2.28223 9.02172,9.06851 7.86136,14.98765 -0.66812,3.40818 1.13392,5.60197 19.79208,24.09452 19.22271,19.05208 20.78385,20.29358 24.56713,19.53693 8.42195,-1.68439 16.54835,6.737 14.47448,14.99993 -0.83868,3.34158 2.766,7.27074 50.17504,54.69179 49.20006,49.21249 51.23234,51.06273 55.25726,50.30765 8.54293,-1.60266 16.65193,6.69635 14.58597,14.92778 -0.79976,3.18648 1.08656,5.51697 19.51563,24.111 18.54509,18.7111 20.74205,20.5167 24.15054,19.84853 5.91914,-1.16036 12.70542,2.3992 14.98766,7.86136 1.14385,2.73763 1.60842,6.18481 1.10425,8.1936 -0.79431,3.16477 3.48443,7.83003 48.97741,53.40179 49.18859,49.27374 49.90947,49.92526 54.51443,49.26866 7.30343,-1.04137 12.13667,1.693 13.93415,7.88316 1.97434,6.7993 -0.17198,15.19762 -4.36178,17.06716 -2.90464,1.29608 -2.9057,1.31355 -2.9057,47.55572 0,46.09783 0.0107,46.26364 2.87637,47.54264 6.70815,2.99326 6.73004,20.57836 0.0293,23.56831 -2.77293,1.23732 -2.9057,2.09993 -2.9057,18.87879 0,17.35708 0.0417,17.60125 3.2614,19.06822 6.60018,3.00724 6.11401,17.47282 -0.70576,20.99946 l -3.88898,2.01106 v 47.26486 47.26485 l 3.9402,2.03756 c 6.80664,3.51985 7.2211,17.98104 0.60178,20.99701 -3.14387,1.43243 -3.20864,1.80344 -3.20864,18.37751 0,16.04112 0.14869,16.98191 2.87637,18.19904 6.70815,2.99325 6.73004,20.57836 0.0293,23.56831 l -2.9057,1.29656 v 46.92582 46.92583 l 2.9057,1.29656 c 3.9211,1.74965 6.27359,10.22888 4.59448,16.56019 -1.0495,3.95734 -2.0936,5.00144 -6.05094,6.05094 -3.19987,0.84863 -6.54755,0.78082 -10.11591,-0.20493 z m -1.91235,-22.00883 c 2.47431,-1.32421 2.57902,-3.27301 2.57902,-47.99848 v -46.61822 l -5.17731,-5.33487 -5.17731,-5.33485 h -15.8591 -15.85912 l -3.44738,3.92869 c -1.89605,2.16079 -5.04132,4.32876 -6.98946,4.81771 -4.52228,1.13502 -10.76322,-1.4381 -13.45606,-5.54791 l -2.09574,-3.19849 H 848 801.39481 l -2.09574,3.19849 c -2.68088,4.09156 -8.9281,6.68436 -13.4008,5.56179 -1.91776,-0.48134 -5.12611,-2.66992 -7.12967,-4.86354 l -3.64281,-3.98837 -15.22956,0.37915 -15.22956,0.37914 L 850,904.26001 c 57.93333,29.10967 105.82277,52.95967 106.42099,53 0.59821,0.0403 2.24821,-0.54778 3.66666,-1.30692 z M 762.26424,842.9436 c 0.91729,-0.58312 -20.26912,-8.29619 -49.75487,-18.11361 -28.24382,-9.40392 -51.58664,-16.86383 -51.87292,-16.57756 -0.28626,0.28626 12.50343,6.99429 28.42154,14.90672 L 718,837.54537 l 5.11433,-2.17168 c 6.47403,-2.74905 12.91054,-0.95625 16.95403,4.72231 2.60199,3.65415 3.35007,3.90269 11.68909,3.88359 4.90007,-0.0107 9.62812,-0.47743 10.50679,-1.03599 z m 134.43669,-2.14209 c 2.7046,-4.12775 8.93759,-6.68198 13.50712,-5.5351 3.2782,0.82278 5.4387,-0.94104 24.6491,-20.12328 17.84674,-17.8206 20.93794,-21.49529 20.28169,-24.11 -0.97713,-3.89326 1.78569,-10.72053 5.04403,-12.46433 2.35242,-1.25899 2.4838,-3.87516 2.4838,-49.46281 v -48.13354 l -3.27942,-3.03925 c -5.0808,-4.70873 -5.65408,-9.42159 -1.98693,-16.33424 l 3.14255,-5.92375 -10.48974,-42.17094 c -5.76934,-23.19402 -10.98585,-43.99836 -11.59222,-46.23188 -0.81116,-2.98784 -2.34236,-4.5093 -5.79448,-5.7576 C 928.10328,559.86473 924,554.46561 924,550.11145 c 0,-1.11154 0.95768,-4.02925 2.12817,-6.48381 l 2.12819,-4.46284 -24.13179,-48.24907 c -16.13005,-32.2504 -24.8157,-48.24906 -26.19438,-48.24906 -7.81875,0 -14.00951,-8.85496 -11.62428,-16.62675 1.3242,-4.31465 0.963,-4.99655 -11.46932,-21.65204 -7.06012,-9.45839 -14.44716,-19.26501 -16.41564,-21.79248 C 836.45247,380.06793 825.77943,365.85 814.70309,351 c -18.40465,-24.67504 -20.48452,-27 -24.15382,-27 -9.02728,0 -15.92259,-7.68011 -13.95035,-15.53813 0.83531,-3.3281 -2.8318,-7.32271 -50.28495,-54.77584 C 678.86084,206.23288 674.86623,202.56577 671.53813,203.40108 664.23339,205.23445 656,198.52376 656,190.73659 c 0,-2.25367 -8.1656,-6.81328 -46.86597,-26.1696 -25.77628,-12.89224 -47.82628,-23.14538 -49,-22.78476 -1.17372,0.36062 -4.00982,1.41068 -6.30246,2.33346 -5.445,2.1916 -11.82037,-0.2706 -14.59536,-5.63682 l -1.97136,-3.8122 H 489.93717 442.60949 L 441.04517,138.1 c -1.65433,3.63085 -7.29742,7.23669 -11.31229,7.22835 -1.31975,-0.003 -4.35651,-1.19815 -6.74835,-2.65648 l -4.34881,-2.6515 -47.31785,23.64775 C 329.63057,184.50189 324,187.68176 324,190.3908 c 0,8.39843 -7.87496,14.72709 -16.08231,12.92445 -4.17241,-0.91641 -5.28046,0.0868 -54.85516,49.66143 l -50.59673,50.59673 0.88511,4.71799 c 1.23122,6.56305 -1.93496,12.18479 -8.29968,14.73652 L 190,325.05304 178.96535,369.52652 c -6.06906,24.46041 -11.01906,45.52348 -11,46.80681 0.0191,1.28334 1.21938,3.51807 2.6674,4.96608 3.98593,3.98594 4.68098,8.83044 2.09098,14.57403 l -2.27346,5.04164 24.11181,48.20913 c 19.92396,39.83598 24.58583,48.20912 26.84107,48.20912 7.31722,0 14.55708,8.24275 12.87833,14.66228 -0.39116,1.49579 0.27576,3.79348 1.50873,5.19799 1.5811,1.80104 104.82523,84.67045 125.1452,100.44841 1.01176,0.7856 3.29503,0.6318 6.19659,-0.41742 3.70547,-1.33991 5.40713,-1.32479 8.79413,0.0781 4.26204,1.7654 8.07387,7.25975 8.07387,11.63764 0,1.85509 24.66953,14.73788 107.72089,56.25344 l 107.7209,53.84732 4.92084,-1.77941 c 6.78742,-2.45436 13.35316,0.58601 15.78428,7.30916 l 1.70766,4.72246 76.91127,25.62426 76.91127,25.62425 5.9228,-3.14204 c 7.16642,-3.80177 11.85014,-3.06051 16.87988,2.67149 l 3.44737,3.9287 h 46.33901 46.33902 l 2.09574,-3.1985 z m 60.78843,-2.13636 5.17731,-5.33487 v -16.52249 c 0,-12.6447 -0.42267,-16.68467 -1.80088,-17.21355 -1.94759,-0.74736 -42.19912,38.65636 -42.19912,41.31028 0,2.47863 2.47562,2.879 18.48936,2.99021 l 15.15602,0.1052 5.17731,-5.33485 z M 339.88889,647.45608 c -3.19441,-3.12745 -106.1495,-84.78749 -106.89917,-84.78831 -0.55565,-6.1e-4 2.56251,7.12615 6.92924,15.83723 7.60856,15.17812 8.14321,15.87656 12.82592,16.75504 6.11651,1.14745 10.82215,5.7428 11.93051,11.65084 0.83218,4.43595 1.69946,4.96771 37.08836,22.74015 31.73466,15.93725 40.30598,19.94021 38.12514,17.80505 z M 960.51051,620.3876 c -3.3665,-2.46164 -3.67239,-1.36132 -1.81827,6.54043 2.38219,10.15216 3.25195,10.72386 3.72093,2.4458 0.32352,-5.71056 -0.0893,-7.66026 -1.90266,-8.98623 z m -4.52478,-19.02761 c 1.12675,-2.10534 0.57848,-4.29298 -2.70705,-10.80159 -2.26597,-4.48887 -4.41429,-7.86724 -4.77404,-7.50748 -0.35975,0.35975 0.30499,4.47045 1.4772,9.13492 3.37771,13.44063 3.56631,13.72883 6.00389,9.17415 z m -714.6524,-3.37903 c 0,-0.37713 -3.90429,-8.47713 -8.67621,-18 -5.49396,-10.9638 -9.43055,-17.31429 -10.73288,-17.31429 -4.03416,0 -9.57609,-3.94055 -11.26028,-8.00652 -1.40236,-3.38563 -1.38973,-5.1077 0.0699,-9.5305 l 1.78157,-5.3982 -24.25533,-48.53238 c -16.26455,-32.54376 -24.93678,-48.5324 -26.3239,-48.5324 -4.04506,0 -9.586,-3.93567 -11.27221,-8.00652 -1.40077,-3.38176 -1.39039,-5.10572 0.0572,-9.4919 1.75191,-5.3083 1.6882,-5.52242 -6.65587,-22.36977 -8.22529,-16.60753 -8.55458,-17.04561 -13.91166,-18.50753 l -5.48696,-1.49736 -49.814786,49.75353 -49.814784,49.75353 0.882004,5.22054 0.882004,5.22053 105.599442,52.88791 c 58.0797,29.08834 106.34945,52.92145 107.26612,52.96246 0.91666,0.0411 1.66666,-0.234 1.66666,-0.61113 z m 718.06071,-97.2494 c -4.09247,-3.37755 -6.21832,-8.89285 -5.29255,-13.73099 0.64107,-3.3502 -3.28093,-7.64337 -45.36654,-49.65998 -25.33756,-25.29603 -46.06828,-45.53403 -46.06828,-44.97336 0,0.56066 2.70602,6.4074 6.01338,12.99274 4.61875,9.1965 6.64408,11.97336 8.73288,11.97336 4.61447,0 10.12991,3.67736 11.89052,7.92787 1.7005,4.10535 1.54707,5.54589 -1.35725,12.74328 -1.53895,3.81376 -0.4952,6.24516 21.91609,51.05353 14.44907,28.88895 24.42087,47.33398 25.83486,47.78718 7.86349,2.52038 10.08234,3.99994 11.98632,7.99262 1.8297,3.83692 1.86793,5.12807 0.29313,9.89975 -1.8044,5.4674 -1.7822,5.54391 6.10621,21.04156 L 962,591.33333 l 0.35189,-43.9351 0.3519,-43.93512 z M 173.44319,370.24239 C 179.80347,344.80907 184.62317,324 184.15365,324 c -0.4695,0 -9.7247,8.88585 -20.56709,19.74635 -19.31844,19.3507 -19.68396,19.82385 -18.24283,23.61433 1.16862,3.07369 1.00582,5.08499 -0.7928,9.79457 l -2.26338,5.9266 8.48774,17.13747 c 4.66826,9.4256 9.07634,16.94125 9.79575,16.70144 0.7194,-0.2398 6.51187,-21.24507 12.87215,-46.67837 z m 679.28756,19.21485 c -1.17291,-2.26815 -2.71715,-4.12391 -3.43166,-4.12391 -1.91918,0 -1.61657,1.0119 1.6062,5.37092 3.63415,4.91547 4.65247,4.21983 1.82546,-1.24701 z m -18.06408,-24.51296 c 0,-0.94732 -2.7792,-4.39732 -6.17599,-7.66667 -6.48393,-6.24066 -6.44453,-5.39289 0.17599,3.78624 4.1029,5.68855 6,6.91547 6,3.88043 z M 372.56848,157.05637 c 22.31895,-11.15232 40.28611,-20.75232 39.92701,-21.33333 -0.35908,-0.581 -6.60205,-1.05637 -13.87328,-1.05637 h -13.2204 l -2.1228,4.10504 c -2.8594,5.52946 -10.09185,8.56966 -15.7196,6.60782 -4.10437,-1.43078 -4.31826,-1.27428 -20.84662,15.2541 -9.18484,9.18484 -16.25523,16.6997 -15.71196,16.6997 0.54326,0 19.2487,-9.12462 41.56765,-20.27696 z m 260.07735,4.19027 c -15.21615,-15.31853 -16.19446,-16.05336 -20.48784,-15.38871 -6.15066,0.95219 -12.87684,-2.13542 -15.437,-7.08622 l -2.1228,-4.10504 h -13.74354 c -7.55894,0 -14.17558,0.43204 -14.70362,0.96008 -0.88802,0.88801 78.22814,41.47328 81.16146,41.63446 0.72187,0.0397 -5.87813,-7.16689 -14.66666,-16.01457 z M 419.90213,125.5162 c 1.81179,-3.38536 8.62495,-6.00764 12.8523,-4.94665 1.91006,0.4794 4.84052,2.34737 6.5121,4.15104 L 442.30579,128 H 490 537.69421 l 3.03926,-3.27941 c 1.67158,-1.80367 4.60204,-3.67164 6.5121,-4.15104 4.22735,-1.06099 11.04051,1.56129 12.8523,4.94665 C 561.2896,127.74297 563.216,128 578.71357,128 591.69056,128 596,127.58284 596,126.32667 c 0,-0.92034 -22.35,-23.9348 -49.66667,-51.143261 l -49.66666,-49.469925 -7.44751,-0.08255 -7.44749,-0.08255 -49.72592,49.739186 c -29.33888,29.34671 -49.34924,50.34869 -48.80715,51.22581 0.59888,0.96902 6.91009,1.48662 18.12651,1.48662 15.42082,0 17.34577,-0.25793 18.53702,-2.4838 z"
     style="fill:#d7eae5;stroke-width:1" />
  <path
     inkscape:connector-curvature="0"
     id="path4499"
     d="m 960.42049,977.32403 c -3.51464,-1.41608 -5.75382,-5.26936 -5.75382,-9.90142 0,-3.19766 -7.00634,-6.92274 -108.06163,-57.45342 -102.49684,-51.25151 -108.21105,-53.9294 -110.96335,-52.00163 -7.13862,5.00009 -17.6873,0.29693 -19.41289,-8.65532 -0.88691,-4.60115 -1.35909,-4.87913 -49.36895,-29.06432 l -48.47348,-24.41876 -4.56098,2.16433 c -7.70883,3.65808 -14.62998,-0.21726 -16.03054,-8.97594 l -0.8314,-5.19924 -107.73916,-53.87283 -107.73917,-53.87283 -4.84043,2.02246 c -7.52702,3.145 -14.37088,-0.1112 -16.0206,-7.62228 -0.7969,-3.62826 -4.49646,-5.73588 -50.13562,-28.56195 -46.62767,-23.32048 -49.43123,-24.53537 -52.17852,-22.61109 -7.3441,5.144 -19.64328,-0.82747 -19.64328,-9.53714 0,-3.67006 -3.01912,-5.28501 -107.79077,-57.65806 C 25.114943,499.23701 23.025391,498.2642 19.912559,500.44451 15.685039,503.40557 9.0259763,503.25823 5.147712,500.1178 2.5086516,497.98083 2,496.34584 2,490 2,480.39043 5.2730549,477.06931 14.283869,477.53575 l 5.863574,0.30352 L 70.073721,427.92629 120,378.01333 v -5.77589 c 0,-8.14813 5.41464,-13.57077 13.55076,-13.57077 5.66173,0 6.09601,-0.34348 26.55173,-21 19.54182,-19.73366 20.79288,-21.3033 20.74668,-26.02963 -0.0689,-7.04949 3.81576,-10.64371 11.79512,-10.91315 l 6.1691,-0.2083 50.8511,-50.8511 50.8511,-50.8511 0.2083,-6.1691 c 0.26944,-7.97936 3.86366,-11.86404 10.91315,-11.79512 4.72633,0.0461 6.29597,-1.20486 26.02963,-20.74668 20.65652,-20.45572 21,-20.89 21,-26.55173 0,-8.13612 5.42264,-13.55076 13.57077,-13.55076 h 5.77589 l 49.91296,-49.926279 49.91298,-49.926278 -0.30352,-5.863574 C 477.07216,5.3282112 480.40443,2 489.83457,2 c 9.87183,0 12.18915,2.2965161 12.0961,11.987449 l -0.0693,7.220399 49.66228,49.64904 49.6623,49.649042 6.11282,-0.31642 c 5.24287,-0.2714 6.68556,0.2563 10.13718,3.70793 3.46442,3.46442 3.97982,4.88476 3.70425,10.20833 l -0.32011,6.18398 20.58998,20.36033 c 20.25758,20.03164 20.68124,20.35793 26.24256,20.2114 7.98585,-0.2104 11.40741,3.45515 11.58241,12.40835 l 0.13213,6.75954 50.30176,50.30175 50.30175,50.30176 6.75955,0.13213 c 8.9532,0.175 12.61874,3.59656 12.40834,11.58242 -0.14653,5.56132 0.17976,5.98497 20.2114,26.24256 l 20.36034,20.58997 6.18397,-0.32011 c 5.32357,-0.27557 6.74391,0.23983 10.20833,3.70426 3.45163,3.45161 3.97934,4.8943 3.70794,10.13717 l -0.31643,6.11283 49.85117,49.86446 49.85118,49.86447 5.69993,-0.78125 c 7.37248,-1.01052 11.99101,1.83837 13.17017,8.12389 1.33114,7.09553 -0.47369,12.75879 -4.86156,15.25485 l -3.85476,2.1928 v 46 46 l 3.91082,2.22498 c 7.17764,4.08356 7.14218,18.15413 -0.056,22.24889 l -3.85476,2.1928 -0.008,17.08953 -0.008,17.08954 4.66666,4.40124 c 2.91239,2.74673 4.66667,5.65281 4.66667,7.73065 0,3.9322 -4.31047,9.85136 -8.03479,11.03341 -2.55765,0.81148 -2.63281,2.21992 -2.63281,49.3223 0,47.10237 0.0752,48.51081 2.63188,49.32229 3.72432,1.18205 8.03479,7.10121 8.03479,11.03341 0,2.07784 -1.75428,4.98392 -4.66667,7.73066 l -4.66667,4.40124 0.008,16.42286 0.008,16.42287 3.91082,2.22497 c 7.17764,4.08356 7.14218,18.15414 -0.056,22.2489 l -3.85476,2.1928 V 907.33333 954 l 3.91081,2.22497 c 6.86585,3.90618 7.23347,18.63916 0.52868,21.18832 -4.01105,1.525 -9.45285,1.48867 -13.3692,-0.0893 z M 960.71357,956.51332 964,954.35997 V 907.84665 861.33333 L 958.66667,856 l -5.33334,-5.33333 h -17.39729 c -17.24727,0 -17.42399,0.0311 -20.49387,3.6 -4.60373,5.35214 -11.96093,5.05917 -16.74106,-0.66667 l -3.56198,-4.26667 H 848 800.86087 L 797.29889,853.6 c -4.78013,5.72584 -12.13733,6.01881 -16.74106,0.66667 -3.08231,-3.5834 -3.17836,-3.59967 -20.8272,-3.52667 L 742,850.81335 849.33333,904.66667 c 59.03334,29.61933 107.50444,53.88633 107.71358,53.92666 0.20913,0.0403 1.85913,-0.89566 3.66666,-2.08001 z M 898.75807,841 c 3.26674,-3.91163 4.25704,-4.30705 10.17598,-4.06335 l 6.55706,0.26998 20.80802,-20.93664 c 20.51954,-20.64639 20.8053,-21.01435 20.61199,-26.54104 -0.15553,-4.44647 0.55652,-6.3899 3.44643,-9.4063 L 964,776.52075 v -47.85408 -47.85408 l -3.6,-3.7576 c -4.42783,-4.62164 -4.76763,-11.13863 -0.84107,-16.13043 3.44912,-4.38487 3.59578,-3.5438 -9.92509,-56.92456 l -10.30051,-40.66667 -4.31746,-2.1569 c -9.14735,-4.5698 -11.1429,-9.02928 -7.48751,-16.73244 l 2.27155,-4.78692 -24.50342,-49.06416 c -23.5373,-47.1297 -24.66953,-49.09532 -28.71689,-49.8546 -7.18795,-1.34847 -11.10485,-8.0964 -8.56987,-14.76392 1.65826,-4.36152 0.18875,-6.92179 -15.89881,-27.70002 -13.49711,-17.43245 -15.57144,-20.19981 -29.68889,-39.6077 -6.66791,-9.16667 -15.46739,-20.86667 -19.55439,-26 -4.08701,-5.13334 -7.58841,-9.56756 -7.78089,-9.85383 -0.19248,-0.28628 -2.82282,-0.66003 -5.8452,-0.83056 -7.69308,-0.43407 -11.3078,-4.30607 -11.01771,-11.80187 l 0.22241,-5.74692 -51.55645,-51.43989 -51.55647,-51.43988 -5.55486,0.19763 c -6.99351,0.24882 -10.8523,-2.99227 -11.98328,-10.06502 l -0.83106,-5.1971 -47.79092,-23.90264 -47.79092,-23.90264 -5.21637,2.71893 c -6.62729,3.45433 -11.13941,2.43168 -15.70993,-3.56059 l -3.43916,-4.50896 -46.84175,-6e-5 -46.84175,-6e-5 -4.14194,4.9334 c -3.36288,4.00544 -5.04326,4.93339 -8.9337,4.93339 -2.63876,0 -5.91708,-1.01844 -7.29636,-2.26667 -1.37756,-1.24666 -3.3574,-2.23653 -4.39965,-2.19969 -1.04225,0.0368 -22.89501,10.68683 -48.56168,23.66667 L 323.33333,186 l -1.0458,5.50145 c -1.45994,7.68018 -5.04694,10.55466 -12.75584,10.22207 l -6.19836,-0.26743 -50.93626,50.86842 -50.93627,50.86841 0.2696,6.35512 c 0.30616,7.21681 -1.79648,10.22395 -8.77335,12.54745 l -4.29038,1.42883 -11.85582,46.96745 -11.85581,46.96747 3.37269,3.60371 c 4.83074,5.16165 5.53939,8.7425 2.85123,14.40738 l -2.3122,4.8726 24.4874,49.0321 24.48739,49.03208 4.85428,0.77624 c 6.61248,1.05737 9.6662,4.80068 9.91448,12.15333 0.1116,3.30544 0.76994,6.52719 1.46297,7.15943 3.50633,3.19881 122.17313,97.60386 125.09043,99.51536 2.80564,1.83833 4.19237,1.96781 7.91544,0.73909 7.41874,-2.44841 13.62312,1.19633 15.05818,8.84591 l 0.85616,4.5637 108.09848,54.0525 c 107.98286,53.99468 108.10395,54.05086 113.19462,52.52566 6.58073,-1.97164 11.5569,0.23804 14.48068,6.43015 1.16108,2.45897 3.06396,5.00415 4.22861,5.65592 1.16465,0.65177 36.2042,12.59435 77.86567,26.53904 l 75.74809,25.35399 4.00188,-2.95872 c 6.03105,-4.45895 12.40379,-3.95931 16.63132,1.30396 l 3.42383,4.26266 47.23622,0.004 47.23624,0.004 z m -128.93618,1.95485 c 0.5299,-0.8574 -95.6706,-33.74245 -116.48856,-39.8203 l -6,-1.75172 3.33334,2.79857 c 1.83333,1.53921 17.6997,9.98869 35.2586,18.77664 31.43553,15.73297 31.98069,15.94532 35.53905,13.84335 6.0988,-3.60266 11.67616,-2.766 16.39075,2.45873 l 4.14493,4.59347 13.58797,0.0732 c 7.47339,0.0403 13.87866,-0.39711 14.23392,-0.97194 z m 188.26764,-3.80802 4.57714,-4.85318 v -17.85533 c 0,-15.11275 -0.3266,-17.98068 -2.12628,-18.67128 -3.03567,-1.16489 -43.20706,39.01559 -43.20706,43.21683 0,2.98441 0.19024,3.01613 18.08954,3.01613 H 953.5124 Z M 345.92464,650.54473 c -2.32075,-3.75505 -114.51536,-92.10592 -115.02427,-90.57917 -0.31116,0.93348 3.25896,9.27311 7.9336,18.53251 8.41743,16.67296 8.55006,16.84329 13.75702,17.66725 6.36174,1.00671 11.40901,6.28241 11.40901,11.9254 0,3.83648 1.07303,4.47707 40.07687,23.92565 C 326.11915,643.00736 344.75455,652 345.48889,652 c 0.73434,0 0.93042,-0.65487 0.43575,-1.45527 z m 613.12755,-32.46908 c -4.92299,-4.26202 -5.20006,-2.43574 -1.73503,11.43612 4.01827,16.08674 4.63756,16.51064 5.06809,3.46916 0.37447,-11.34273 0.27664,-11.78022 -3.33306,-14.90528 z m -3.15358,-15.1018 c 1.64259,-4.97706 1.4827,-5.59828 -4.51438,-17.53918 -3.41952,-6.80866 -6.55562,-12.04107 -6.96911,-11.62758 -1.06248,1.0625 7.68272,35.62316 8.83401,34.91162 0.52063,-0.32176 1.7129,-2.90695 2.64948,-5.74486 z m -714.18906,-3.7945 c 0.45134,-0.45136 -3.32632,-9.09878 -8.39483,-19.2165 -8.145,-16.25898 -9.6698,-18.49562 -13.12684,-19.25492 -7.50609,-1.64861 -10.76028,-8.49473 -7.61547,-16.02133 l 2.02331,-4.84248 -24.55316,-49.09236 c -24.23437,-48.45496 -24.6124,-49.10348 -29.11481,-49.94815 -7.74294,-1.45258 -11.1758,-7.44118 -8.8038,-15.35817 1.40972,-4.70525 1.057,-5.78763 -7.3594,-22.58345 -4.86206,-9.70274 -9.5731,-17.82502 -10.46899,-18.04951 -0.89589,-0.22451 -3.50997,-1.02101 -5.80906,-1.77003 l -4.18017,-1.36185 -50.322786,50.33587 -50.322789,50.33585 1.169622,5.15717 L 26,492.66667 132.66667,546.26243 c 58.66666,29.47766 107.01666,53.62766 107.44444,53.66666 0.42778,0.0389 1.14708,-0.29838 1.59844,-0.74974 z M 964,548.57713 v -44.7562 l -4.84133,-4.56597 c -4.45343,-4.20012 -4.78836,-5.03587 -4.18026,-10.43095 l 0.66107,-5.86498 -47.81973,-47.80591 C 881.51888,408.85988 860,387.80409 860,388.36249 c 0,0.55839 3.26856,7.53259 7.26348,15.49823 6.75009,13.45929 7.58532,14.54333 11.81695,15.3372 8.04138,1.50857 11.84825,8.66231 8.34578,15.68316 -1.15108,2.30741 -2.09288,5.00635 -2.09288,5.99764 0,0.99129 10.76494,23.32576 23.92208,49.63215 23.59626,47.17834 23.9842,47.84144 28.48362,48.68553 7.72114,1.44849 11.29156,7.64084 8.7849,15.23607 -1.46789,4.44777 -1.10733,5.58298 6.9228,21.7965 4.65924,9.4074 8.93979,17.10436 9.51231,17.10436 0.57253,0 1.04096,-20.14029 1.04096,-44.7562 z M 175.06501,371.46132 c 6.45242,-25.59296 11.37643,-47.4584 10.94226,-48.58985 -0.57491,-1.49816 -6.39091,3.53552 -21.40175,18.52292 l -20.61231,20.58013 0.82416,6.21281 c 0.62995,4.7488 0.24088,7.20023 -1.65108,10.40307 l -2.47524,4.19025 9.10636,18.01794 c 6.77752,13.41005 9.67278,17.91276 11.32115,17.60666 1.73275,-0.32177 4.76809,-10.5388 13.94645,-46.94393 z m 683.63332,29.28864 c -4.84578,-12.74539 -10.23125,-19.40845 -12.5953,-15.58332 -0.65266,1.056 11.84686,18.83336 13.242,18.83336 0.32393,0 0.0329,-1.46252 -0.6467,-3.25004 z m -23.31466,-34.24189 c 0.72072,-2.27076 -0.89723,-4.6445 -8.24348,-12.0943 -9.1045,-9.23282 -15.30496,-14.06101 -12.93891,-10.07526 2.86119,4.81984 18.45284,24.99482 19.31653,24.99482 0.53303,0 1.37267,-1.27137 1.86586,-2.82526 z M 372.66145,159.00927 c 24.56954,-12.27824 44.67188,-22.77824 44.67188,-23.33334 0,-0.55509 -7.40369,-1.00926 -16.45264,-1.00926 -16.16077,0 -16.47902,0.0579 -17.93929,3.26281 -2.52076,5.53247 -7.48209,7.87496 -14.60976,6.898 l -6.26464,-0.85865 -17.70017,17.66372 c -15.86484,15.83218 -19.21068,19.70078 -17.03871,19.70078 0.36381,0 20.76381,-10.04582 45.33333,-22.32406 z M 652,180.35121 c 0,-0.54017 -7.91455,-8.913 -17.58787,-18.60628 l -17.58788,-17.62414 -5.71026,0.78268 c -6.53868,0.89622 -11.61772,-1.62388 -14.05539,-6.97399 -1.46027,-3.20493 -1.77852,-3.26281 -17.93929,-3.26281 -10.04652,0 -16.45264,0.5176 -16.45264,1.32933 0,1.15848 85.70136,45.07481 88.33333,45.26505 0.55,0.0397 1,-0.36968 1,-0.90984 z M 541.61168,125.73333 c 4.77433,-4.5741 11.64255,-4.85842 16.10447,-0.66666 2.903,2.72722 4.4045,2.93333 21.36978,2.93333 13.7478,0 18.2474,-0.41262 18.2474,-1.67333 0,-0.92034 -22.45484,-24.12219 -49.89964,-51.559674 L 497.53404,24.880659 489.76703,24.676735 482,24.472809 431.78753,74.442325 c -30.63446,30.486245 -49.94404,50.669035 -49.52401,51.763595 0.53007,1.38133 4.85364,1.79408 18.7932,1.79408 16.81831,0 18.3266,-0.20843 21.22713,-2.93333 4.4859,-4.21428 11.46436,-3.92451 16.05555,0.66666 l 3.6,3.6 h 47.95733 47.95735 z"
     style="fill:#c7e9da;stroke-width:1" />
  <path
     inkscape:connector-curvature="0"
     id="path4497"
     d="m 960.98188,977.74408 c -2.80205,-0.73077 -6.31521,-7.04391 -6.31521,-11.3484 0,-2.73473 -11.73731,-8.93817 -107.45963,-56.79492 l -107.45963,-53.72485 -5.66957,2.16522 c -5.11908,1.955 -6.14108,1.96823 -10.52565,0.13624 -4.10042,-1.71326 -5.11536,-2.99842 -6.5223,-8.2588 l -1.66621,-6.2298 -49.05709,-24.53553 c -40.10642,-20.05891 -49.52,-24.28779 -51.59419,-23.17772 -1.3954,0.7468 -3.32653,1.34897 -4.29141,1.33816 -0.96488,-0.0107 -0.25432,-0.77853 1.57901,-1.70604 2.7064,-1.36921 3.33333,-2.67468 3.33333,-6.94097 0,-4.2663 -0.62693,-5.57176 -3.33333,-6.94098 -2.08125,-1.05293 -2.53451,-1.69376 -1.20665,-1.70604 2.4982,-0.0231 5.88034,3.5127 7.05142,7.37175 0.55839,1.84004 3.2852,3.56035 8.39822,5.29831 4.16424,1.41546 10.91312,4.59958 14.9975,7.07582 4.0844,2.47624 22.92991,12.27111 41.87891,21.76636 l 34.45275,17.26412 5.67645,-2.16785 c 5.08303,-1.94123 6.17225,-1.96071 10.41879,-0.1864 2.60826,1.08981 5.15766,3.29012 5.66532,4.88957 0.90264,2.84398 1.35826,2.89812 20.6577,2.45506 16.50366,-0.37888 20.15643,-0.83508 22.31047,-2.78639 1.41667,-1.28333 3.42852,-2.32449 4.47077,-2.31368 1.04226,0.0107 0.39502,0.77853 -1.43832,1.70604 -2.7064,1.36921 -3.33333,2.67468 -3.33333,6.94097 0,4.2663 0.62693,5.57176 3.33333,6.94098 2.03164,1.02782 2.51291,1.69405 1.23242,1.70604 -1.1555,0.0108 -3.51008,-1.48035 -5.23242,-3.31368 -3.03642,-3.23214 -3.67096,-3.33334 -20.89908,-3.33334 -10.96589,0 -17.76758,0.51084 -17.76758,1.33443 0,0.73393 48.23138,25.44789 107.18086,54.91992 107.15376,53.57193 107.18175,53.58491 110.66667,51.30149 L 964,954.60519 v -47.27186 -47.27185 l -3.12783,-2.04944 c -1.72032,-1.12719 -3.80745,-3.54103 -4.63809,-5.36407 -1.50281,-3.29833 -1.60105,-3.31464 -19.97308,-3.31464 -17.96973,0 -18.54647,0.0891 -21.59433,3.33334 -1.72234,1.83333 -4.07692,3.32449 -5.23242,3.31368 -1.28049,-0.012 -0.79922,-0.67822 1.23242,-1.70604 2.7064,-1.36922 3.33333,-2.67468 3.33333,-6.94098 0,-4.26629 -0.62693,-5.57176 -3.33333,-6.94097 l -3.33334,-1.68639 3.66667,-0.0196 c 2.31272,-0.012 3.66667,0.6898 3.66667,1.90166 0,1.05672 0.72308,2.3682 1.60685,2.9144 2.68939,1.66214 38.98159,0.52613 39.60688,-1.23976 0.30088,-0.84974 2.25088,-3.04006 4.33333,-4.86738 L 964,834.07289 v -18.49457 c 0,-17.37325 -0.16168,-18.53687 -2.66667,-19.19193 -1.82254,-0.4766 -2.66044,-1.8088 -2.64701,-4.20851 l 0.0196,-3.51116 1.68639,3.33333 c 1.36921,2.7064 2.67468,3.33334 6.94097,3.33334 4.26629,0 5.57176,-0.62694 6.94097,-3.33334 1.15359,-2.28021 1.69259,-2.62672 1.70604,-1.09677 0.0107,1.23011 -1.48034,3.41645 -3.31368,4.85856 -3.2632,2.56684 -3.33333,3.00295 -3.33333,20.7292 v 18.1072 l 3.9402,2.03756 c 7.21105,3.72897 7.17768,17.68345 -0.0512,21.42167 l -3.88895,2.01101 v 47.26485 47.26486 l 3.9402,2.03756 c 4.43199,2.29186 6.28104,8.2863 4.7318,15.33997 -1.25805,5.72785 -8.18228,8.07411 -17.02345,5.76836 z M 792,854.27431 c 2.7064,-1.36922 3.33333,-2.67468 3.33333,-6.94098 0,-4.26629 -0.62693,-5.57176 -3.33333,-6.94097 -1.99817,-1.01091 -2.49864,-1.69425 -1.24945,-1.70604 1.14613,-0.0107 3.80838,1.78035 5.91612,3.98035 l 3.83224,4 H 848 895.50109 l 3.83224,-4 c 2.10774,-2.2 4.76999,-3.99116 5.91612,-3.98035 1.24919,0.012 0.74872,0.69513 -1.24945,1.70604 -2.7064,1.36921 -3.33333,2.67468 -3.33333,6.94097 0,4.2663 0.62693,5.57176 3.33333,6.94098 2.05493,1.03961 2.52299,1.69392 1.2204,1.70604 -1.16212,0.0107 -3.71675,-1.78035 -5.67696,-3.98035 l -3.56401,-4 H 848 800.02057 l -3.56401,4 c -1.96021,2.2 -4.51484,3.99116 -5.67696,3.98035 -1.30259,-0.012 -0.83453,-0.66643 1.2204,-1.70604 z m -189.79335,-59.3793 c -1.21366,-1.34108 -2.16862,-3.29108 -2.12213,-4.33333 0.0465,-1.04225 0.63236,-0.53089 1.30196,1.13635 0.6696,1.66725 2.58157,3.57922 4.24883,4.24882 1.9521,0.784 2.2742,1.24754 0.90468,1.30196 -1.16968,0.0465 -3.11968,-1.01272 -4.33334,-2.3538 z m 375.23195,-6.33945 c 0.064,-1.55327 0.37992,-1.8692 0.80555,-0.80556 0.38516,0.96249 0.3378,2.11251 -0.1052,2.55556 -0.44306,0.44305 -0.75819,-0.34445 -0.7003,-1.75 z m -378.14748,-2.30851 c -0.61363,-1.52129 -41.51856,-22.69209 -110.17731,-57.02349 -89.72412,-44.86469 -109.65353,-54.36187 -111.73658,-53.24705 -1.39439,0.74625 -3.3247,1.3188 -4.28958,1.2723 -0.96488,-0.0465 -0.34773,-0.64808 1.37144,-1.33688 1.71916,-0.68881 3.43915,-2.45077 3.82218,-3.91549 0.8217,-3.14223 2.45964,-3.46345 3.52353,-0.69101 0.41621,1.08465 49.47645,26.33341 109.02275,56.10834 97.33981,48.67284 108.74904,54.06024 113.05254,53.38296 3.85642,-0.6069 4.1975,-0.5045 1.75522,0.52696 -1.66726,0.70414 -3.55716,2.64436 -4.19979,4.31162 -1.06313,2.7582 -1.25637,2.81332 -2.1444,0.61174 z m 359.3952,0.6121 c -0.0107,-0.99415 1.48035,-3.59018 3.31368,-5.76898 l 3.33333,-3.96144 V 728.66667 680.2046 L 962,676.24316 c -1.83333,-2.1788 -3.32449,-4.77483 -3.31368,-5.76897 0.0107,-0.99414 0.77853,-0.30752 1.70604,1.52581 1.36921,2.7064 2.67468,3.33333 6.94097,3.33333 4.2663,0 5.57176,-0.62693 6.94098,-3.33333 1.17849,-2.32943 1.6923,-2.65103 1.70604,-1.06785 0.0107,1.24601 -2.08035,3.86722 -4.64702,5.82492 l -4.66666,3.55944 v 48.35016 48.35016 l 4.66666,3.55944 c 2.56667,1.95769 4.65783,4.5789 4.64702,5.82492 -0.0137,1.58317 -0.52755,1.26157 -1.70604,-1.06786 C 972.90509,782.62693 971.59963,782 967.33333,782 c -4.26629,0 -5.57176,0.62693 -6.94097,3.33333 -0.92751,1.83334 -1.69523,2.51995 -1.70604,1.52582 z m -593.813,-111.96414 c -1.21367,-1.34108 -2.16863,-3.29108 -2.12213,-4.33333 0.0465,-1.04225 0.63236,-0.53089 1.30196,1.13635 0.6696,1.66725 2.58157,3.57922 4.24882,4.24882 1.95211,0.784 2.2742,1.24754 0.90468,1.30196 -1.16968,0.0465 -3.11968,-1.01272 -4.33333,-2.3538 z m 612.56528,-6.33945 c 0.064,-1.55327 0.37992,-1.8692 0.80555,-0.80556 0.38516,0.96249 0.3378,2.11251 -0.1052,2.55556 -0.44306,0.44305 -0.75819,-0.34445 -0.7003,-1.75 z m -665.21339,-26.16823 -49.7748,-25.19197 -5.68774,2.17217 c -5.13755,1.96206 -6.15747,1.97591 -10.54382,0.14318 -4.10078,-1.71342 -5.11532,-2.99828 -6.52285,-8.26091 l -1.66679,-6.23192 -106.67919,-53.34289 C 28.80032,500.39697 24.515909,498.39541 20.668747,499.96783 c -6.966207,2.84721 -9.550625,3.00077 -13.771173,0.81825 -4.5976045,-2.37752 -6.47788285,-8.25765 -4.9153771,-15.37169 1.141923,-5.19914 7.2700924,-8.69727 13.1693421,-7.51742 3.957942,0.79159 6.068072,-1.12892 55.103398,-50.15184 42.139273,-42.12861 50.863183,-51.4717 50.269443,-53.83734 -1.30759,-5.20987 2.70416,-12.11304 8.06824,-13.88335 2.66788,-0.88048 5.81901,-1.22929 7.0025,-0.77515 1.5444,0.59264 8.49159,-5.47446 24.61167,-21.49389 12.35293,-12.27577 22.4839,-23.24265 22.51326,-24.37084 0.0301,-1.15752 0.93731,-0.42076 2.08219,1.69103 1.73829,3.2064 2.7286,3.6837 6.91596,3.33333 3.64681,-0.30513 5.31293,-1.25491 6.56483,-3.74225 1.045,-2.07631 1.68508,-2.53135 1.69732,-1.20666 0.0327,3.52983 -5.02079,7.00211 -10.34455,7.10791 -4.5512,0.0904 -6.63415,1.72477 -24.766,19.43208 -10.88828,10.63333 -20.33836,20.34405 -21.00019,21.57937 -0.74037,1.38192 -0.66188,3.67014 0.20403,5.94766 1.09209,2.87242 0.90007,5.02994 -0.85724,9.6314 l -2.2646,5.92977 9.15272,18.45589 C 157.52945,416.516 159.78688,420 162.06288,420 c 3.14647,0 8.61428,5.15048 8.58413,8.08593 -0.0107,1.05274 -0.77588,0.41939 -1.70016,-1.40745 -2.7662,-5.46741 -11.9196,-5.2368 -14.34448,0.36141 -1.0717,2.47418 -1.15913,2.27086 -0.53258,-1.23856 0.60534,-3.39064 -1.0326,-7.7563 -8.51108,-22.68477 -9.22528,-18.41543 -9.28275,-18.49199 -15.03246,-20.02668 -3.37096,-0.89976 -6.62196,-1.06528 -7.81568,-0.39793 -1.12415,0.62845 -23.845035,22.98404 -50.490863,49.67909 l -48.446959,48.53645 0.943689,6.29298 0.943691,6.29298 106.499982,53.25327 C 190.73509,576.03603 239.56156,600 240.66337,600 c 1.10182,0 2.0033,-0.608 2.0033,-1.35111 0,-0.7431 -4.34315,-9.8931 -9.65146,-20.33333 -5.30829,-10.44023 -9.83282,-19.35583 -10.05452,-19.81247 -0.22169,-0.45662 0.81987,-1.15002 2.31456,-1.5409 1.49471,-0.39087 3.33474,-2.11727 4.08895,-3.83643 1.16748,-2.66113 1.27673,-2.36508 0.73501,1.99161 -0.538,4.32667 0.74078,7.88052 8.27602,23 6.49218,13.02659 9.5638,17.88263 11.31138,17.88263 1.31947,0 4.47314,0.86661 7.00816,1.92581 3.83096,1.60068 4.89139,2.98119 6.28104,8.17698 l 1.67194,6.25116 42.67612,21.03453 c 57.77525,28.47669 56.8255,28.05033 60.67613,27.2388 l 3.33333,-0.70251 -3.12576,1.37451 c -1.71916,0.75597 -3.43914,2.57289 -3.82217,4.03761 -0.38303,1.46471 -1.07644,2.56846 -1.54091,2.45276 -0.46446,-0.11573 -23.24314,-11.54673 -50.61928,-25.40232 z m 66.13423,23.24851 c -0.42603,-1.62913 -2.18119,-3.52563 -3.90035,-4.21444 -1.9507,-0.78157 -2.32628,-1.28415 -0.99908,-1.33688 2.71138,-0.10773 6.99263,4.55755 6.24383,6.80395 -0.32301,0.96905 -0.90529,0.42653 -1.3444,-1.25263 z m 580.32688,0.86075 c -0.0107,-1.19354 0.81911,-2.86618 1.84425,-3.71698 1.34779,-1.11856 2.13138,-6.89748 2.82987,-20.87006 l 0.96596,-19.32318 -4.82987,-4.6907 c -5.33158,-5.17796 -6.03844,-9.02432 -2.80684,-15.27355 1.9598,-3.78981 1.81078,-4.31916 -4.76733,-16.93379 -11.283,-21.63702 -13.80565,-25.67006 -16.58903,-26.52142 -3.81177,-1.16591 -7.33661,-4.55895 -7.31368,-7.04023 0.012,-1.33176 0.6478,-0.88515 1.70016,1.19484 2.7662,5.46741 11.9196,5.2368 14.34448,-0.36141 1.07156,-2.47386 1.15902,-2.27024 0.53239,1.23948 -0.60281,3.3763 0.95569,7.60308 7.95012,21.56121 4.78496,9.54889 9.31941,17.74449 10.07656,18.21244 C 963.55984,594.55201 964,580.1008 964,548.77609 v -46.04794 l -3.19849,-2.09575 c -4.24655,-2.78244 -6.50754,-8.59009 -5.50124,-14.13067 0.80654,-4.44076 0.16742,-5.15104 -47.18923,-52.4427 -26.40377,-26.36755 -48.334,-47.61386 -48.73383,-47.21402 -0.87433,0.87432 13.34358,30.22007 16.16647,33.36756 1.77865,1.98319 1.68887,2.30639 -0.86599,3.11726 -1.5677,0.49757 -3.42844,2.20192 -4.13497,3.78742 -1.23272,2.76631 -1.25924,2.75407 -0.65665,-0.30274 0.3935,-1.99616 -1.07042,-6.47644 -3.92099,-12 C 863.46316,409.96653 859.20289,401.05 856.49781,395 c -4.86672,-10.88459 -4.96965,-11 -9.80898,-11 -7.448,0 -14.92262,-9.24713 -11.9557,-14.79085 0.8215,-1.53498 1.15248,-4.08498 0.73552,-5.66667 -0.41694,-1.58169 -7.68832,-9.17581 -16.15858,-16.87581 -8.47028,-7.7 -17.81587,-16.85 -20.76799,-20.33334 -2.95212,-3.48333 -6.38176,-6.37136 -7.62145,-6.41785 -1.61674,-0.0607 -1.39695,-0.42871 0.7774,-1.30196 1.66725,-0.6696 3.57922,-2.58157 4.24882,-4.24883 1.11571,-2.77801 1.22451,-2.80722 1.30196,-0.34953 0.0512,1.62535 8.69646,11.28188 21.94558,24.51275 19.63544,19.6084 22.2134,21.74249 25.3221,20.96226 5.39758,-1.3547 12.19795,2.14946 13.95548,7.19112 0.82472,2.3658 1.12442,5.79591 0.66599,7.62244 -0.74579,2.97146 4.48277,8.6424 49.68093,53.88439 l 50.51444,50.56343 4.87908,-0.80587 c 7.05239,-1.16484 12.7607,2.11161 13.85663,7.9534 1.34051,7.14552 -0.42212,12.53695 -4.84673,14.825 l -3.88898,2.01107 v 46.59818 46.59819 l 3.9402,2.03756 c 7.21106,3.72897 7.17768,17.68345 -0.0512,21.42167 l -3.88897,2.01106 v 18.77387 c 0,18.43737 0.0597,18.82087 3.33333,21.39587 1.83334,1.4421 3.3245,3.62845 3.31368,4.85856 -0.0135,1.52994 -0.55245,1.18344 -1.70604,-1.09678 C 972.90512,662.62693 971.59965,662 967.33336,662 c -4.26629,0 -5.57176,0.62693 -6.94097,3.33333 -1.09388,2.16219 -1.6933,2.5709 -1.70604,1.16326 z M 215.53999,556.22835 c -1.21367,-1.34108 -2.16863,-3.29108 -2.12214,-4.33334 0.0465,-1.04225 0.63236,-0.53089 1.30196,1.13635 0.6696,1.66725 2.58158,3.57923 4.24883,4.24883 1.95211,0.784 2.2742,1.24753 0.90468,1.30196 -1.16968,0.0465 -3.11968,-1.01272 -4.33333,-2.3538 z m -2.12214,-7.74194 c -0.0465,-0.83246 0.70118,-3.3822 1.66147,-5.66606 1.56325,-3.71788 2.00252,-3.9649 4.19715,-2.36015 2.3449,1.71464 2.32717,1.82476 -0.4091,2.54032 -1.57314,0.41139 -3.42382,2.15456 -4.11264,3.87372 -0.6888,1.71917 -1.2904,2.44464 -1.33688,1.61217 z m 15.60826,-1.51724 c -0.42603,-1.62913 -2.18119,-3.52562 -3.90035,-4.21444 -1.95071,-0.78157 -2.32628,-1.28414 -0.99908,-1.33688 2.71137,-0.10773 6.99263,4.55755 6.24383,6.80395 -0.32302,0.96905 -0.9053,0.42653 -1.3444,-1.25263 z m 699.07848,1.6975 c -0.0355,-0.73334 0.69732,-3.51976 1.62836,-6.19207 1.48372,-4.25863 1.97528,-4.65217 3.97993,-3.18633 2.95804,2.16297 2.88327,2.91149 -0.37599,3.7638 -1.46472,0.38302 -3.22668,2.10301 -3.91549,3.82217 -0.6888,1.71917 -1.28137,2.52576 -1.31681,1.79243 z m 15.58818,-1.6975 c -0.42602,-1.62913 -2.18118,-3.52562 -3.90034,-4.21444 -1.95071,-0.78157 -2.32628,-1.28414 -0.99908,-1.33688 2.71137,-0.10773 6.99262,4.55755 6.24382,6.80395 -0.32301,0.96905 -0.90529,0.42653 -1.3444,-1.25263 z M 164.95379,440.71173 c -2.95804,-2.16297 -2.88327,-2.91149 0.37598,-3.7638 1.46472,-0.38302 3.22668,-2.10301 3.9155,-3.82217 1.88054,-4.6936 1.63157,-1.17756 -0.31155,4.39964 -1.48372,4.25863 -1.97528,4.65217 -3.97993,3.18633 z m 716,0 c -2.95804,-2.16297 -2.88327,-2.91149 0.37598,-3.7638 1.46472,-0.38302 3.22668,-2.10301 3.9155,-3.82217 1.88054,-4.6936 1.63157,-1.17756 -0.31155,4.39964 -1.48372,4.25863 -1.97528,4.65217 -3.97993,3.18633 z m -725.4138,-4.48338 c -1.21367,-1.34108 -2.16863,-3.29108 -2.12214,-4.33334 0.0465,-1.04225 0.63236,-0.53089 1.30196,1.13635 0.6696,1.66725 2.58158,3.57923 4.24883,4.24883 1.95211,0.784 2.2742,1.24753 0.90468,1.30196 -1.16968,0.0465 -3.11968,-1.01272 -4.33333,-2.3538 z m 716,0 c -1.21367,-1.34108 -2.16863,-3.29108 -2.12214,-4.33334 0.0465,-1.04225 0.63236,-0.53089 1.30196,1.13635 0.6696,1.66725 2.58158,3.57923 4.24883,4.24883 1.95211,0.784 2.2742,1.24753 0.90468,1.30196 -1.16968,0.0465 -3.11968,-1.01272 -4.33333,-2.3538 z m 13.48612,-9.25918 c -0.42603,-1.62913 -2.18119,-3.52562 -3.90035,-4.21444 -1.95071,-0.78157 -2.32628,-1.28414 -0.99908,-1.33688 2.71137,-0.10773 6.99263,4.55755 6.24383,6.80395 -0.32302,0.96905 -0.9053,0.42653 -1.3444,-1.25263 z M 782.20665,317.56168 c -1.21366,-1.34108 -2.16862,-3.29108 -2.12213,-4.33333 0.0465,-1.04226 0.63236,-0.5309 1.30196,1.13634 0.6696,1.66726 2.58157,3.57923 4.24883,4.24883 1.9521,0.784 2.2742,1.24753 0.90468,1.30196 -1.16968,0.0465 -3.11968,-1.01272 -4.33334,-2.3538 z m -599.45546,-8.35503 c -0.10187,-2.56373 4.05128,-6.57302 6.68713,-6.45546 1.04225,0.0465 0.53089,0.63236 -1.13635,1.30196 -1.66725,0.6696 -3.57922,2.58157 -4.24882,4.24882 -0.784,1.95211 -1.24754,2.2742 -1.30196,0.90468 z m 15.69886,-0.86976 c -0.47586,-1.64805 -2.23016,-3.50137 -3.89842,-4.1185 -2.93811,-1.08688 -2.9107,-1.1474 0.87424,-1.92987 5.70594,-1.17961 107.20562,-102.99731 107.32532,-107.66159 l 0.0845,-3.2936 1.21745,3.03136 c 0.6696,1.66726 2.58158,3.57923 4.24883,4.24883 2.84669,1.14328 2.78729,1.2226 -0.97505,1.30196 -3.45552,0.0729 -11.09843,7.18875 -55.58431,51.75119 -41.99627,42.06853 -51.65681,52.40974 -52.00263,55.66666 -0.38337,3.61059 -0.50894,3.70828 -1.28993,1.00356 z m 581.63447,-0.34322 C 779.96212,303.15729 676.8312,200.03836 671.99375,199.91548 l -3.32708,-0.0845 3.03136,-1.21746 c 1.66725,-0.6696 3.57922,-2.58157 4.24882,-4.24882 1.14578,-2.8529 1.22243,-2.79699 1.30196,0.94953 0.0727,3.42008 7.36576,11.26212 51.7703,55.66667 44.40454,44.40453 52.24658,51.69768 55.66666,51.77029 3.74652,0.0796 3.80243,0.15619 0.94954,1.30196 -1.66726,0.6696 -3.57923,2.58157 -4.24883,4.24883 l -1.21745,3.03136 -0.0845,-3.33967 z m 15.60825,0.30884 c -0.42602,-1.62914 -2.18118,-3.52563 -3.90034,-4.21444 -1.95071,-0.78158 -2.32628,-1.28415 -0.99908,-1.33688 2.71137,-0.10774 6.99262,4.55754 6.24382,6.80394 -0.32301,0.96906 -0.90529,0.42654 -1.3444,-1.25262 z M 314.36469,198.61352 c 1.66726,-0.6696 3.57923,-2.58157 4.24883,-4.24883 0.784,-1.9521 1.24753,-2.2742 1.30196,-0.90468 0.10187,2.56374 -4.05128,6.57303 -6.68713,6.45547 -1.04226,-0.0465 -0.5309,-0.63236 1.13634,-1.30196 z m 347.84196,-1.05184 c -1.21366,-1.34108 -2.16862,-3.29108 -2.12213,-4.33333 0.0465,-1.04226 0.63236,-0.5309 1.30196,1.13634 0.6696,1.66726 2.58157,3.57923 4.24883,4.24883 1.9521,0.784 2.2742,1.24753 0.90468,1.30196 -1.16968,0.0465 -3.11968,-1.01272 -4.33334,-2.3538 z m -359.45546,-8.35503 c -0.10187,-2.56373 4.05128,-6.57302 6.68713,-6.45546 1.04225,0.0465 0.53089,0.63236 -1.13635,1.30196 -1.66725,0.6696 -3.57922,2.58157 -4.24882,4.24882 -0.784,1.95211 -1.24754,2.2742 -1.30196,0.90468 z m 15.91548,-0.23636 c 0,-1.22016 -1.65,-3.1136 -3.66667,-4.20766 -2.10071,-1.13964 -2.79063,-2.01199 -1.61544,-2.04258 1.12819,-0.0293 12.09507,-10.16033 24.37084,-22.51326 16.01943,-16.12008 22.08653,-23.06727 21.49389,-24.61167 -0.45414,-1.18349 -0.10533,-4.33462 0.77515,-7.0025 1.77031,-5.36408 8.67348,-9.37583 13.88335,-8.06824 2.36564,0.59374 11.70873,-8.13017 53.83734,-50.269443 49.02292,-49.035326 50.94343,-51.145456 50.15184,-55.103398 -1.17985,-5.8992497 2.31828,-12.0274191 7.51742,-13.1693421 11.05844,-2.4288387 18.3255,3.6003182 16.63993,13.8053861 l -0.80587,4.879084 50.56343,50.514441 c 46.15831,46.113602 50.86553,50.438612 54.03121,49.644082 5.40464,-1.35648 12.20351,2.1444 13.96222,7.18943 0.82472,2.36581 1.12517,5.79287 0.66768,7.61571 -0.732,2.91652 1.78796,5.93763 20.9991,25.17528 13.17136,13.18955 22.89472,21.89823 24.51275,21.95478 2.51,0.0877 2.52307,0.15613 0.204,1.06812 -1.3628,0.53593 -3.16696,2.26209 -4.00924,3.8359 -1.44891,2.70732 -1.93895,2.34446 -9.09511,-6.7348 -4.16002,-5.27794 -13.89968,-15.82578 -21.64368,-23.43962 -13.52145,-13.29422 -14.26678,-13.81306 -18.78872,-13.07924 -6.4836,1.05214 -12.35081,-1.29391 -14.72684,-5.88864 l -1.99373,-3.85544 h -17.23849 c -16.60994,0 -17.36003,0.12146 -20.57182,3.33333 -1.83333,1.83333 -4.41061,3.32449 -5.72728,3.31368 -1.81978,-0.0149 -1.59448,-0.42412 0.9394,-1.70604 2.7064,-1.36921 3.33334,-2.67468 3.33334,-6.94097 0,-4.2663 -0.62694,-5.57176 -3.33334,-6.94097 -2.08125,-1.05294 -2.5345,-1.69377 -1.20665,-1.70604 1.16968,-0.0108 3.22699,1.19616 4.5718,2.68216 2.26847,2.50662 3.80059,2.6752 21.20665,2.33333 17.60702,-0.34581 18.78419,-0.53258 19.12967,-3.03515 0.27024,-1.95755 -12.75728,-15.78103 -48.99057,-51.983823 l -49.35872,-49.317156 -9.19319,-0.189437 -9.19319,-0.189439 -49.48289,49.547879 c -27.2156,27.251336 -49.48291,50.159296 -49.48291,50.906596 0,3.78218 3.64416,4.55871 21.39335,4.55871 16.50003,0 18.41797,-0.24819 20.60665,-2.66666 1.32732,-1.46667 3.37031,-2.65782 4.53999,-2.64701 1.32785,0.0123 0.8746,0.6531 -1.20665,1.70604 -2.7064,1.36921 -3.33334,2.67467 -3.33334,6.94097 0,4.26629 0.62694,5.57176 3.33334,6.94097 1.83333,0.92751 2.48997,1.69523 1.45918,1.70604 -1.03077,0.0107 -3.84074,-1.48035 -6.24437,-3.31368 -4.12467,-3.14604 -5.30975,-3.33333 -21.09161,-3.33333 h -16.72139 l -2.01105,3.88894 c -2.5195,4.87218 -9.42028,7.4609 -14.61934,5.48422 -2.2225,-0.845 -4.47697,-0.90811 -5.85872,-0.164 -4.22905,2.27745 -34.64265,34.27241 -38.78008,40.79645 -2.27294,3.58405 -4.13262,5.51816 -4.13262,4.29801 z m 357.0261,-0.66778 c -0.42602,-1.62914 -2.18118,-3.52563 -3.90034,-4.21444 -1.95071,-0.78158 -2.32628,-1.28415 -0.99908,-1.33688 2.71137,-0.10774 6.99262,4.55754 6.24382,6.80394 -0.32301,0.96906 -0.90529,0.42654 -1.3444,-1.25262 z M 433.33333,139.60764 c 2.7064,-1.36921 3.33334,-2.67468 3.33334,-6.94097 0,-4.2663 -0.62694,-5.57176 -3.33334,-6.94097 -1.83333,-0.92751 -2.51994,-1.69523 -1.52581,-1.70604 0.99415,-0.0108 3.59017,1.48034 5.76897,3.31367 l 3.96144,3.33334 H 490 538.46207 l 3.96144,-3.33334 c 2.1788,-1.83333 4.77482,-3.32448 5.76897,-3.31367 0.99413,0.0108 0.30752,0.77853 -1.52581,1.70604 -2.7064,1.36921 -3.33334,2.67467 -3.33334,6.94097 0,4.26629 0.62694,5.57176 3.33334,6.94097 2.00632,1.01503 2.50209,1.69421 1.24533,1.70604 -1.1484,0.0107 -3.9472,-2.08035 -6.21956,-4.64701 L 537.56089,132 H 490 442.43911 l -4.13155,4.66667 c -2.27236,2.56666 -5.07116,4.65782 -6.21956,4.64701 -1.25676,-0.012 -0.76099,-0.69101 1.24533,-1.70604 z"
     style="fill:#b0d8cf;stroke-width:1" />
  <path
     inkscape:connector-curvature="0"
     id="path4495"
     d="m 959.97859,976.25077 c -1.74879,-1.41608 -3.32738,-4.58894 -3.81439,-7.66666 l -0.83087,-5.25078 -108,-54.26462 c -61.74401,-31.0233 -108.85658,-53.93827 -110,-53.50266 -1.1,0.4191 -3.57578,1.3917 -5.50176,2.16136 -6.83426,2.73115 -13.23637,-2.27928 -14.75678,-11.549 -0.2955,-1.80161 -13.64272,-9.16033 -48.36788,-26.66666 -26.37787,-13.29812 -48.16214,-24.8812 -48.40948,-25.74016 -0.83115,-2.8864 5.01556,-0.23828 51.39465,23.27792 l 45.94851,23.29788 4.55828,-2.1737 C 724.70592,836.97816 727.60855,836 728.64916,836 c 3.53839,0 8.38603,2.95155 10.09632,6.14728 1.67161,3.12343 2.06764,3.18605 20.14649,3.18605 23.98706,0 24.72018,2.45623 0.88387,2.9613 -12.3098,0.26084 -17.71831,0.85622 -18.09555,1.99202 -0.33509,1.00888 39.95536,21.86484 106.80618,55.28716 97.64489,48.81794 107.68321,53.54799 111.09556,52.34826 l 3.7513,-1.31891 0.35027,-48.58233 0.35025,-48.58234 -3.01692,-2.89076 c -1.65932,-1.5899 -4.06106,-4.16357 -5.33721,-5.71924 C 953.53064,848.20871 952.07368,848 935.93436,848 c -11.27719,0 -17.13433,-0.47043 -16.60103,-1.33333 0.48323,-0.78188 8.23607,-1.33334 18.74536,-1.33334 9.95211,0 17.92131,-0.54264 17.92131,-1.2203 0,-0.67118 1.8,-2.91923 4,-4.99568 l 4,-3.77536 v -15.56195 c 0,-8.55907 0.36419,-16.51101 0.80932,-17.67099 C 966.95073,796.5286 968,801.52503 968,817.3026 v 17.30259 l 3.66667,2.34574 c 5.26874,3.37066 6.91518,5.84262 6.91518,10.3824 0,4.53979 -1.64644,7.01175 -6.91518,10.3824 L 968,860.06148 v 47.26835 47.26836 l 3.96048,2.04804 c 4.75547,2.45914 6.70619,5.7539 6.70619,11.32672 0,8.88625 -11.59439,14.02194 -18.68808,8.27782 z M 308.96995,639.90887 c -47.16811,-23.68088 -47.73998,-23.9239 -51.60046,-21.92758 -4.65337,2.40636 -6.82948,2.51134 -11.15973,0.53835 C 242.76077,616.94817 240,612.24412 240,607.93889 240,605.82388 219.72748,595.19972 131.73793,551.20229 24.378883,497.51953 23.445748,497.08579 19.865541,499.20067 11.182608,504.3298 1.3333333,499.43995 1.3333333,490 c 0,-7.17725 4.7474588,-11.33333 12.9459737,-11.33333 h 6.400518 l 50.326754,-50.33983 c 45.228631,-45.24037 50.326751,-50.77179 50.326751,-54.60393 0,-8.95059 4.7802,-13.72291 13.74554,-13.72291 3.75488,0 6.84685,-2.56412 24.92113,-20.66667 11.34892,-11.36666 21.09167,-20.66666 21.65053,-20.66666 3.20842,0 -1.08178,5.27341 -19.44877,23.9059 -20.37935,20.67398 -20.45935,20.77894 -19.13671,25.10714 1.05052,3.43774 0.81592,5.48236 -1.12221,9.78037 l -2.4504,5.43401 8.92045,17.8989 c 9.53726,19.1365 9.56544,19.20701 7.67963,19.20701 -0.68245,0 -5.42735,-8.2508 -10.54421,-18.33511 l -9.30338,-18.3351 -6.05551,-1.40495 -6.05551,-1.40495 -50.819511,50.83238 C 18.29382,486.38677 22.055935,481.68617 24.775148,492 c 0.822121,3.11827 216.138052,110.2868 217.946842,108.47801 1.06946,-1.06946 -0.93322,-6.26216 -7.36655,-19.10057 -4.85943,-9.69749 -8.61573,-18.62457 -8.34736,-19.83796 0.26837,-1.21337 4.80535,6.34385 10.08217,16.79385 8.4085,16.65184 9.99732,19 12.85591,19 7.33571,0 11.691,4.25047 12.97905,12.66667 0.31372,2.04985 11.66488,8.30493 49.07479,27.04277 26.76667,13.40686 48.86667,24.95686 49.11111,25.66667 1.16168,3.37321 -7.90234,-0.59035 -52.14116,-22.80057 z M 964,638.99567 v -18.33766 l -4,-3.77536 c -4.4312,-4.18234 -4.94203,-7.68814 -2.09769,-14.39624 1.87217,-4.41534 1.75237,-4.77672 -7.56271,-22.81258 -5.20576,-10.0794 -9.0618,-18.7294 -8.56897,-19.22223 1.24682,-1.24683 0.94716,-1.74509 10.7542,17.88173 C 957.38,588.05 961.94812,596 962.67621,596 963.52723,596 964,579.2868 964,549.20161 v -46.79838 l -4.17032,-3.89567 c -3.73348,-3.48759 -4.10152,-4.50595 -3.51361,-9.72184 l 0.65669,-5.8262 -49.76748,-49.75421 c -27.37212,-27.36482 -50.07044,-49.45127 -50.44071,-49.08099 -0.37026,0.37027 2.90623,8.05739 7.28111,17.08249 4.37488,9.02511 7.95432,16.98107 7.95432,17.67992 0,3.68538 -3.70771,-2.32322 -11.32297,-18.3497 l -8.49143,-17.87036 h -5.19372 c -3.67243,0 -6.00904,-0.87872 -7.97727,-3 -3.39262,-3.65646 -3.82785,-5.68495 -2.46221,-11.47612 1.03961,-4.40862 0.73673,-4.7984 -20.08176,-25.84418 -13.21203,-13.35625 -20.46492,-21.60894 -19.34399,-22.01054 1.04347,-0.37384 10.52107,8.01628 22.66667,20.06585 18.75031,18.60208 21.24735,20.63587 24.55047,19.99589 8.36926,-1.62154 15.73614,5.79003 13.72396,13.80723 -0.83543,3.3286 2.81712,7.30287 50.18229,54.60225 l 51.08329,51.01236 6.23196,-0.73834 c 5.4487,-0.64556 6.66366,-0.30667 9.66667,2.69634 5.86359,5.86359 4.28233,15.00347 -3.27148,18.9097 L 968,502.73515 v 46.60169 46.60168 l 3.66667,2.34575 c 5.26874,3.37065 6.91518,5.84261 6.91518,10.3824 0,4.53978 -1.64644,7.01174 -6.91518,10.3824 L 968,621.39481 v 17.96926 c 0,15.08378 -0.32116,17.96926 -2,17.96926 -1.68083,0 -2,-2.92641 -2,-18.33766 z M 318.66667,182.3172 c 0,-0.92553 9.3,-10.96828 20.66666,-22.3172 C 357.43588,141.92572 360,138.83375 360,135.07887 c 0,-8.97017 4.77204,-13.74554 13.73599,-13.74554 3.84982,0 9.30549,-5.02962 54.60392,-50.339825 l 50.32676,-50.339828 v -6.387444 c 0,-5.0039541 0.70885,-7.0963027 3.27273,-9.6601723 4.52571,-4.52571709 11.66652,-4.45468377 16.28319,0.1619772 3.00301,3.0030126 3.3419,4.2179705 2.69634,9.6666661 l -0.73834,6.231963 50.9097,50.913581 c 46.7877,46.791252 51.20743,50.853852 54.58683,50.175902 8.30567,-1.66624 15.54271,5.55816 13.9244,13.90006 -0.64141,3.30624 1.4272,5.83398 20.50923,25.06128 11.67242,11.7613 21.22258,21.8113 21.22258,22.33334 0,3.2929 -5.74176,-1.436 -24.01613,-19.7796 -20.03277,-20.10868 -20.7852,-20.70423 -25.15227,-19.90799 -5.90953,1.07745 -10.96004,-1.14447 -13.76958,-6.05781 l -2.27132,-3.9721 h -16.64999 c -9.66175,0 -16.99585,-0.55962 -17.47404,-1.33333 -0.53205,-0.86089 4.90427,-1.33333 15.34229,-1.33333 15.8368,0 21.32438,-1.1289 21.32438,-4.38683 0,-0.89448 -22.73982,-24.36024 -50.53291,-52.14612 l -50.53292,-50.519788 -8.07323,-0.207253 -8.07322,-0.207252 -50.89063,50.903512 -50.89064,50.903511 2.83011,2.83011 c 2.58413,2.58413 4.28553,2.83011 19.57546,2.83011 10.82404,0 16.45396,0.47148 15.92131,1.33333 -0.47819,0.77371 -7.81229,1.33333 -17.47404,1.33333 h -16.64999 l -2.27132,3.9721 c -3.04281,5.32128 -8.44309,7.49848 -14.20942,5.72874 l -4.43298,-1.36052 -21.13216,21.16318 C 330.2074,174.47657 320.24089,184 319.68229,184 c -0.5586,0 -1.01562,-0.75725 -1.01562,-1.6828 z"
     style="fill:#8ba1af;stroke-width:1" />
  <path
     inkscape:connector-curvature="0"
     id="path4493"
     d="m 960.86136,975.397 c -1.94041,-1.79832 -3.53621,-4.64832 -3.54623,-6.33333 -0.0107,-1.68502 -0.38,-4.41367 -0.82218,-6.06367 -0.56896,-2.12309 -0.22647,-3 1.17173,-3 1.08663,0 3.536,-1.22733 5.44304,-2.72741 3.3312,-2.62032 3.61311,-2.63679 7.17981,-0.41923 9.17071,5.70179 10.55455,11.43276 4.27658,17.71075 -4.95351,4.9535 -8.99168,5.19896 -13.70275,0.83289 z M 959.86192,854.59813 954,848.05735 936.66667,847.77149 919.33333,847.48565 936.86137,846.74283 954.3894,846 l 5.41728,-6 5.41728,-6 0.0547,-17.07869 c 0.0353,-11.03304 0.52666,-16.78699 1.38801,-16.25464 0.77171,0.47694 1.33333,7.71724 1.33333,17.18886 v 16.36483 l 5.33334,4.28599 c 8.62301,6.92964 7.31746,13.39213 -4.13808,20.48362 -3.42887,2.12263 -3.54323,2.06882 -9.33334,-4.39184 z m -237.89211,1.04744 c -1.93172,-1.66158 -3.91518,-5.11158 -4.40768,-7.66666 -0.88661,-4.59963 -1.37682,-4.88878 -49.56213,-29.23375 -27.39603,-13.84147 -47.64377,-24.81148 -46.32633,-25.09911 1.28718,-0.28102 23.42949,10.10076 49.20513,23.07063 l 46.86479,23.58159 4.50677,-2.14914 c 6.80319,-3.24421 9.44605,-2.66698 15.42112,3.3681 l 5.46236,5.51722 16.43308,-0.70969 C 768.60512,845.93443 776,846.13427 776,846.76884 c 0,0.63456 -7.95,1.32117 -17.66667,1.52579 -16.78494,0.35346 -17.65364,0.50581 -17.40568,3.05241 0.19447,1.99732 -1.16821,3.27149 -5.34734,5 -7.33676,3.03452 -9.3902,2.92868 -13.6105,-0.70147 z m -411.88548,-215.84621 -47.91566,-24.05577 -4.46291,2.1282 C 255.25117,619.04231 252.09668,620 250.69579,620 c -4.39778,0 -9.53122,-5.63144 -10.6348,-11.66649 -0.88555,-4.84271 -0.64635,-5.84194 1.79185,-7.48492 2.78884,-1.87928 2.73389,-2.05736 -6.18617,-20.05163 -4.95,-9.98552 -9,-18.48524 -9,-18.88825 0,-2.93496 4.00193,3.4607 11.38617,18.19674 8.12368,16.21167 8.86391,17.22788 12.54901,17.22788 5.23131,0 10.7336,4.96848 11.83602,10.68776 0.88654,4.5993 1.37021,4.8847 48.5444,28.64558 26.2069,13.2 48.3769,24.75 49.26666,25.66666 4.09136,4.21511 -5.17769,0.0515 -50.1646,-22.53397 z m 654.85644,16.69697 c -0.42046,-0.42048 -0.41404,-8.18168 0.0143,-17.24713 l 0.7788,-16.48264 -4.86693,-5.38712 c -5.34806,-5.91965 -5.90286,-8.84199 -2.81299,-14.81713 2.01671,-3.89987 1.88365,-4.30399 -7.33333,-22.27416 -5.16298,-10.06624 -9.38726,-18.78448 -9.38726,-19.37388 0,-3.27503 3.70311,2.52548 11.33334,17.7524 8.61766,17.19746 10.44561,19.84838 11.9774,17.3699 0.88492,-1.43182 5.76256,1.12384 11.0226,5.77534 4.98292,4.40644 4.07102,10.53506 -2.33334,15.68174 L 968,621.77964 v 17.03149 c 0,15.3441 -0.7964,19.94803 -3.05923,17.6852 z m -3.31029,-157.7545 c -3.82597,-3.49448 -4.29715,-4.71462 -4.29715,-11.12762 v -7.20277 l 7.36462,-0.24065 c 6.43212,-0.21019 7.78273,0.21048 10.66666,3.3223 3.85594,4.16062 4.16399,8.07284 0.93907,11.92614 -1.97416,2.35882 -8.69221,7.24744 -9.95963,7.24744 -0.22902,0 -2.35014,-1.76618 -4.71357,-3.92484 z M 4.6030015,496.47197 C 2.804684,494.53155 1.3333333,491.61917 1.3333333,490 c 0,-1.61917 1.4713507,-4.53155 3.2696682,-6.47197 C 7.2832627,480.63599 9.0526405,480 14.418425,480 h 6.545755 l 1.886613,7.72257 1.886612,7.72258 -4.423504,2.27742 c -6.497268,3.3451 -11.8463607,2.91931 -15.7108995,-1.2506 z M 146.04276,401.41868 c -4.83173,-9.64225 -9.51797,-17.75249 -10.41387,-18.02276 -0.89589,-0.27028 -4.35248,-1.23859 -7.6813,-2.1518 -5.95859,-1.63467 -6.05641,-1.75215 -6.30997,-7.57819 C 121.29242,365.73423 126.57014,360 134.2156,360 c 4.78813,0 6.32084,-1.23163 26.0548,-20.93667 11.53205,-11.51516 21.40172,-20.50232 21.93257,-19.97146 0.53087,0.53085 -8.52373,10.52133 -20.12133,22.20105 -16.66827,16.78632 -20.87971,21.73921 -20.09948,23.63813 2.25539,5.48916 2.2468,7.45932 -0.0547,12.56323 l -2.41809,5.36236 8.51448,17.19143 c 4.68295,9.45529 8.1296,17.5763 7.6592,18.0467 -0.4704,0.47039 -4.80851,-7.03385 -9.64025,-16.67609 z m 714.79247,-0.75201 -8.65578,-18 h -4.817 c -3.39145,0 -5.82794,-1.01095 -8.23302,-3.41603 -3.09586,-3.09585 -3.33366,-4.07536 -2.53711,-10.45067 l 0.87892,-7.03464 -20.06895,-19.3066 C 799.48105,325.21828 795.05415,320 798.34947,320 c 0.55886,0 10.28806,9.28643 21.62042,20.63652 20.27652,20.30821 20.68092,20.62425 25.42079,19.86632 3.89675,-0.62311 5.56052,-0.12987 8.71289,2.58291 3.44103,2.9612 3.89643,4.22348 3.89643,10.80004 0,4.09582 -0.45,7.44708 -1,7.44725 -2.28547,6.8e-4 -0.57347,4.89219 7,20.00029 8.55349,17.06315 8.65864,17.33334 6.74549,17.33334 -0.68998,0 -5.1496,-8.1 -9.91026,-18 z m -222.82839,-237.58106 -19.99316,-20.57937 -6.32035,0.86927 c -5.7439,0.79 -6.66709,0.52253 -10.12222,-2.9326 -2.09103,-2.09104 -4.09927,-4.69611 -4.46274,-5.78907 -0.52174,-1.56889 -4.28629,-2.14728 -17.88461,-2.74781 L 562,131.1454 l 16.73333,-0.23937 c 17.45224,-0.24965 19.93307,-1.01787 19.93363,-6.1727 2.7e-4,-2.42926 0.82875,-2.73333 7.44725,-2.73333 6.57656,0 7.83884,0.45541 10.80004,3.89642 2.7128,3.15238 3.20602,4.81616 2.58291,8.7129 -0.75793,4.73987 -0.44189,5.14427 19.86632,25.42079 18.05061,18.02241 23.32927,24.42093 19.63652,23.80238 -0.55,-0.0921 -9.99692,-9.42821 -20.99316,-20.74688 z m -319.34017,18.56492 c 0,-0.55886 9.3,-10.30161 20.66666,-21.65053 C 358.82785,140.53592 360,139.07528 360,134.24691 c 0,-7.77216 5.70753,-12.95566 13.87407,-12.60023 4.6605,0.20283 6.12593,0.78572 6.12593,2.43665 0,5.2542 4.14309,6.57273 21.43832,6.8227 L 418,131.1454 l -17.22376,0.76063 c -13.59832,0.60053 -17.36287,1.17892 -17.88461,2.74781 -0.36347,1.09296 -2.38192,3.70824 -4.48544,5.81176 -3.84928,3.84929 -7.18883,4.23439 -13.47514,1.55387 -1.9138,-0.81607 -6.66894,3.21233 -23.3856,19.81142 -19.72752,19.5888 -22.87878,22.3187 -22.87878,19.81964 z M 482.33333,21.747565 C 480.50555,21.269915 480,19.700785 480,14.505236 c 0,-5.4596604 0.62389,-7.210776 3.52803,-9.9022345 4.48434,-4.15594807 8.47033,-4.1460039 12.97888,0.03238 3.11182,2.8839413 3.53249,4.234558 3.3223,10.6666665 l -0.24065,7.364619 -7.46095,-0.154668 c -4.10352,-0.08507 -8.51094,-0.429063 -9.79428,-0.764434 z"
     style="fill:#6ba8ad;stroke-width:1" />
  <path
     inkscape:connector-curvature="0"
     id="path4491"
     d="m 961,974.61837 c -5.45304,-5.94549 -5.08633,-12.19014 0.93436,-15.91114 4.21661,-2.606 4.91287,-2.67956 8.33333,-0.88042 4.56586,2.40162 8.39898,6.808 8.39898,9.6551 0,2.93852 -8.52816,11.19026 -11.53334,11.15952 -1.35666,-0.0139 -4.11666,-1.82426 -6.13333,-4.02306 z m 1.45893,-118.95833 c -5.62617,-4.75599 -6.92905,-8.36971 -4.40593,-12.22048 1.17276,-1.78985 3.59195,-4.21068 5.37596,-5.37961 2.86575,-1.87771 3.67055,-1.90074 6.90736,-0.19766 4.4166,2.32384 8.33035,6.77351 8.33035,9.47104 0,2.68339 -3.9064,7.14322 -8.26712,9.43835 -4.44916,2.34168 -3.73763,2.44128 -7.94062,-1.11164 z M 721.9394,854.0606 c -1.8,-1.8 -3.27273,-4.45092 -3.27273,-5.89095 0,-1.44001 -0.29772,-3.41729 -0.66162,-4.39393 -0.94654,-2.54047 8.92223,-7.00071 13.14488,-5.94089 4.57623,1.14856 9.15503,7.81918 8.14086,11.86 -0.89195,3.5538 -6.8939,7.6385 -11.22379,7.6385 -1.57019,0 -4.3276,-1.47273 -6.1276,-3.27273 z M 961.47435,616.13172 c -2.27756,-2.12756 -4.14102,-5.15735 -4.14102,-6.73288 0,-4.44688 3.58382,-10.31232 6.81756,-11.15796 5.01934,-1.31259 14.51578,5.50812 14.51578,10.42579 0,2.68338 -3.9064,7.14321 -8.26712,9.43834 -4.60599,2.42422 -4.09726,2.5367 -8.9252,-1.97329 z m -716.86828,-0.73779 c -6.35382,-6.3538 -2.91659,-16.72726 5.54254,-16.72726 5.86747,0 9.91643,3.73092 11.10544,10.2331 0.9645,5.27439 0.83934,5.54638 -3.50549,7.61828 -6.21417,2.96334 -9.32077,2.69762 -13.14249,-1.12412 z M 961.06971,497.27484 c -3.64836,-3.64836 -3.96867,-4.62016 -3.16971,-9.61661 0.48883,-3.05696 1.03383,-5.70316 1.21111,-5.88046 0.17729,-0.17728 2.78574,-0.71624 5.79658,-1.19769 4.8561,-0.77652 5.94202,-0.42836 9.61662,3.08329 4.71776,4.50855 5.14229,7.11183 1.80902,11.09307 -2.16728,2.58857 -8.45558,6.57689 -10.36968,6.57689 -0.45949,0 -2.66177,-1.82632 -4.89394,-4.05849 z M 5.3211979,496.18899 C 3.1278724,494.09292 1.3333333,491.30788 1.3333333,490 c 0,-2.76227 7.1083248,-10 9.8211977,-10 1.015008,0 3.653129,0.36153 5.862492,0.8034 3.565265,0.71305 4.162417,1.53875 5.30988,7.34209 1.279362,6.47042 1.247961,6.56643 -3.007734,9.1966 -5.863748,3.62399 -9.294962,3.34134 -13.9979711,-1.1531 z M 127.33333,379.74007 c -3.64956,-2.06954 -4.62236,-3.77258 -4.64625,-8.134 -0.0305,-5.56698 5.33163,-10.27274 11.70557,-10.27274 4.87811,0 5.28527,0.31736 6.9748,5.43672 1.60314,4.85754 1.53248,5.92284 -0.66321,10 -1.99439,3.70335 -3.23453,4.55564 -6.58087,4.52274 -2.26785,-0.0223 -5.32337,-0.72103 -6.79004,-1.55272 z m 712.60396,-1.40674 c -2.33218,-2.46944 -2.69405,-4.04246 -2.0462,-8.89462 0.43288,-3.24204 0.95699,-6.06458 1.16471,-6.27228 0.20771,-0.20771 2.86252,-0.775 5.89959,-1.26064 4.83778,-0.7736 5.9659,-0.43904 9.10521,2.70028 3.12523,3.12521 3.47199,4.27928 2.71261,9.02809 -1.1903,7.44381 -1.46006,7.69917 -8.13329,7.69917 -4.35839,0 -6.59875,-0.7723 -8.70263,-3 z M 365,140.93411 c -8.05749,-3.18392 -2.58588,-18.29738 6.60607,-18.24703 4.46397,0.0245 5.72846,0.83706 8.79076,5.64924 2.13274,3.35147 2.15778,4.0128 0.28873,7.62715 -3.34705,6.47249 -8.08512,7.97394 -15.68556,4.97064 z m 238.66664,0.29241 c -1.28335,-0.74748 -3.21751,-3.06881 -4.29813,-5.15851 -2.83664,-5.48545 0.31668,-11.63798 6.56558,-12.81028 8.3373,-1.56409 13.556,3.92249 12.0741,12.69386 -0.73227,4.33421 -1.46094,5.20562 -4.93367,5.90017 -5.37504,1.07501 -6.63217,0.99147 -9.40788,-0.62524 z M 484.48544,21.801624 C 481.838,21.230939 480,16.868087 480,11.154531 c 0,-2.7128729 7.23773,-9.8211977 10,-9.8211977 1.30788,0 4.15936,1.864063 6.33663,4.1423623 3.51165,3.6746024 3.85981,4.7605194 3.08329,9.6166094 -0.48145,3.010836 -1.02041,5.619299 -1.19769,5.796584 -0.77968,0.77967 -11.15576,1.469104 -13.73679,0.912735 z"
     style="fill:#189c9a;stroke-width:1" />
  <path
     inkscape:connector-curvature="0"
     id="path4489"
     d="m 961,974.61837 c -5.45304,-5.94549 -5.08633,-12.19014 0.93436,-15.91114 4.21661,-2.606 4.91287,-2.67956 8.33333,-0.88042 4.56586,2.40162 8.39898,6.808 8.39898,9.6551 0,2.93852 -8.52816,11.19026 -11.53334,11.15952 -1.35666,-0.0139 -4.11666,-1.82426 -6.13333,-4.02306 z m 0.0697,-477.34353 c -3.64836,-3.64836 -3.96866,-4.62016 -3.1697,-9.61661 0.48882,-3.05696 1.03382,-5.70316 1.2111,-5.88046 0.1773,-0.17728 2.78575,-0.71624 5.79659,-1.19769 4.85609,-0.77652 5.94201,-0.42836 9.61661,3.08329 4.71776,4.50855 5.1423,7.11183 1.80903,11.09307 -2.16728,2.58857 -8.45559,6.57689 -10.36968,6.57689 -0.45949,0 -2.66177,-1.82632 -4.89395,-4.05849 z M 5.3211979,496.18899 C 3.1278724,494.09292 1.3333333,491.30788 1.3333333,490 c 0,-2.76227 7.1083248,-10 9.8211977,-10 1.015008,0 3.653129,0.36153 5.862492,0.8034 3.565265,0.71305 4.162417,1.53875 5.30988,7.34209 1.279362,6.47042 1.247961,6.56643 -3.007734,9.1966 -5.863748,3.62399 -9.294962,3.34134 -13.9979711,-1.1531 z M 484.48544,21.801624 C 481.838,21.230939 480,16.868087 480,11.154531 c 0,-2.7128729 7.23773,-9.8211977 10,-9.8211977 1.30788,0 4.15936,1.864063 6.33663,4.1423623 3.51165,3.6746024 3.85981,4.7605194 3.08329,9.6166094 -0.48145,3.010836 -1.02041,5.619299 -1.19769,5.796584 -0.77968,0.77967 -11.15576,1.469104 -13.73679,0.912735 z"
     style="fill:#345d78;stroke-width:1" />
</svg>
